<mxfile host="app.diagrams.net" modified="2022-04-29T03:32:31.488Z" agent="5.0 (Windows)" etag="ipO2EBijk-1xNbgXsbHS" version="17.4.0" type="github">
  <diagram id="R2lEEEUBdFMjLlhIrx00" name="Page-1">
    <mxGraphModel dx="2476" dy="-602" grid="0" gridSize="10" guides="1" tooltips="1" connect="1" arrows="1" fold="1" page="1" pageScale="1" pageWidth="850" pageHeight="1100" math="0" shadow="0" extFonts="Permanent Marker^https://fonts.googleapis.com/css?family=Permanent+Marker">
      <root>
        <mxCell id="0" />
        <mxCell id="1" parent="0" />
        <mxCell id="DtnWrnmQJirvtFvlb4CL-28" value="&lt;div&gt;&lt;font style=&quot;font-size: 14px&quot;&gt;&lt;b&gt;raw datasets&lt;/b&gt;&lt;/font&gt;&lt;/div&gt;" style="text;html=1;align=center;verticalAlign=middle;resizable=0;points=[];autosize=1;strokeColor=none;fillColor=none;" vertex="1" parent="1">
          <mxGeometry x="-820" y="1340" width="95" height="19" as="geometry" />
        </mxCell>
        <mxCell id="DtnWrnmQJirvtFvlb4CL-31" value="" style="shape=flexArrow;endArrow=classic;html=1;rounded=0;exitX=0.354;exitY=1.199;exitDx=0;exitDy=0;exitPerimeter=0;endWidth=11.764705882352942;endSize=6.482352941176471;" edge="1" parent="1" source="DtnWrnmQJirvtFvlb4CL-28">
          <mxGeometry width="50" height="50" relative="1" as="geometry">
            <mxPoint x="-807" y="1441" as="sourcePoint" />
            <mxPoint x="-835" y="1391" as="targetPoint" />
          </mxGeometry>
        </mxCell>
        <mxCell id="DtnWrnmQJirvtFvlb4CL-32" value="" style="shape=flexArrow;endArrow=classic;html=1;rounded=0;endWidth=11.764705882352942;endSize=6.482352941176471;" edge="1" parent="1">
          <mxGeometry width="50" height="50" relative="1" as="geometry">
            <mxPoint x="-775" y="1371" as="sourcePoint" />
            <mxPoint x="-794" y="1397" as="targetPoint" />
          </mxGeometry>
        </mxCell>
        <mxCell id="DtnWrnmQJirvtFvlb4CL-33" value="" style="shape=flexArrow;endArrow=classic;html=1;rounded=0;endWidth=11.764705882352942;endSize=6.482352941176471;" edge="1" parent="1">
          <mxGeometry width="50" height="50" relative="1" as="geometry">
            <mxPoint x="-765" y="1370" as="sourcePoint" />
            <mxPoint x="-751" y="1397" as="targetPoint" />
          </mxGeometry>
        </mxCell>
        <mxCell id="DtnWrnmQJirvtFvlb4CL-34" value="" style="shape=flexArrow;endArrow=classic;html=1;rounded=0;endWidth=11.764705882352942;endSize=6.482352941176471;exitX=0.782;exitY=0.944;exitDx=0;exitDy=0;exitPerimeter=0;" edge="1" parent="1">
          <mxGeometry width="50" height="50" relative="1" as="geometry">
            <mxPoint x="-753.004" y="1368.9919999999997" as="sourcePoint" />
            <mxPoint x="-708" y="1398" as="targetPoint" />
          </mxGeometry>
        </mxCell>
        <mxCell id="DtnWrnmQJirvtFvlb4CL-35" value="&lt;b&gt;Los Angeles&lt;/b&gt;" style="text;html=1;align=center;verticalAlign=middle;resizable=0;points=[];autosize=1;strokeColor=none;fillColor=none;" vertex="1" parent="1">
          <mxGeometry x="-929" y="1400" width="81" height="18" as="geometry" />
        </mxCell>
        <mxCell id="DtnWrnmQJirvtFvlb4CL-36" value="&lt;b&gt;San Diego&lt;/b&gt;" style="text;html=1;align=center;verticalAlign=middle;resizable=0;points=[];autosize=1;strokeColor=none;fillColor=none;" vertex="1" parent="1">
          <mxGeometry x="-839" y="1405" width="69" height="18" as="geometry" />
        </mxCell>
        <mxCell id="DtnWrnmQJirvtFvlb4CL-37" value="SL" style="text;html=1;align=center;verticalAlign=middle;resizable=0;points=[];autosize=1;strokeColor=none;fillColor=none;" vertex="1" parent="1">
          <mxGeometry x="-773" y="1395" width="25" height="18" as="geometry" />
        </mxCell>
        <mxCell id="DtnWrnmQJirvtFvlb4CL-38" value="Portland" style="text;html=1;align=center;verticalAlign=middle;resizable=0;points=[];autosize=1;strokeColor=none;fillColor=none;" vertex="1" parent="1">
          <mxGeometry x="-744" y="1400" width="55" height="18" as="geometry" />
        </mxCell>
        <mxCell id="DtnWrnmQJirvtFvlb4CL-41" value="" style="endArrow=classic;html=1;rounded=0;fontSize=14;" edge="1" parent="1">
          <mxGeometry width="50" height="50" relative="1" as="geometry">
            <mxPoint x="-708" y="1364" as="sourcePoint" />
            <mxPoint x="-656" y="1364" as="targetPoint" />
          </mxGeometry>
        </mxCell>
        <mxCell id="DtnWrnmQJirvtFvlb4CL-42" value="&lt;font style=&quot;font-size: 12px&quot;&gt;import&lt;/font&gt;" style="text;html=1;align=center;verticalAlign=middle;resizable=0;points=[];autosize=1;strokeColor=none;fillColor=none;fontSize=14;" vertex="1" parent="1">
          <mxGeometry x="-708" y="1338.5" width="43" height="22" as="geometry" />
        </mxCell>
        <mxCell id="DtnWrnmQJirvtFvlb4CL-43" value="&lt;b&gt;&lt;font style=&quot;font-size: 14px&quot;&gt;Cassandra tables&lt;/font&gt;&lt;/b&gt;" style="text;html=1;align=center;verticalAlign=middle;resizable=0;points=[];autosize=1;strokeColor=none;fillColor=none;fontSize=12;" vertex="1" parent="1">
          <mxGeometry x="-659" y="1340" width="126" height="19" as="geometry" />
        </mxCell>
        <mxCell id="DtnWrnmQJirvtFvlb4CL-46" value="LA_listing.csv" style="rounded=0;whiteSpace=wrap;html=1;dashed=1;fontSize=14;" vertex="1" parent="1">
          <mxGeometry x="-937" y="1420" width="96" height="20" as="geometry" />
        </mxCell>
        <mxCell id="DtnWrnmQJirvtFvlb4CL-47" value="LA_calendar.csv" style="rounded=0;whiteSpace=wrap;html=1;dashed=1;fontSize=14;" vertex="1" parent="1">
          <mxGeometry x="-937" y="1440" width="96" height="20" as="geometry" />
        </mxCell>
        <mxCell id="DtnWrnmQJirvtFvlb4CL-48" value="LA_review.csv" style="rounded=0;whiteSpace=wrap;html=1;dashed=1;fontSize=14;" vertex="1" parent="1">
          <mxGeometry x="-937" y="1460" width="96" height="20" as="geometry" />
        </mxCell>
        <mxCell id="DtnWrnmQJirvtFvlb4CL-49" value="LA_neighborhood.csv" style="rounded=0;whiteSpace=wrap;html=1;dashed=1;fontSize=14;" vertex="1" parent="1">
          <mxGeometry x="-937" y="1480" width="96" height="20" as="geometry" />
        </mxCell>
        <mxCell id="DtnWrnmQJirvtFvlb4CL-50" value="SD_.csv" style="rounded=0;whiteSpace=wrap;html=1;dashed=1;fontSize=14;" vertex="1" parent="1">
          <mxGeometry x="-833" y="1427" width="69" height="20" as="geometry" />
        </mxCell>
        <mxCell id="DtnWrnmQJirvtFvlb4CL-51" value="..." style="text;html=1;align=center;verticalAlign=middle;resizable=0;points=[];autosize=1;strokeColor=none;fillColor=none;fontSize=14;rotation=90;" vertex="1" parent="1">
          <mxGeometry x="-809.5" y="1449" width="22" height="21" as="geometry" />
        </mxCell>
        <mxCell id="DtnWrnmQJirvtFvlb4CL-55" value="..." style="text;html=1;align=center;verticalAlign=middle;resizable=0;points=[];autosize=1;strokeColor=none;fillColor=none;fontSize=14;" vertex="1" parent="1">
          <mxGeometry x="-748" y="1423" width="22" height="21" as="geometry" />
        </mxCell>
        <mxCell id="DtnWrnmQJirvtFvlb4CL-59" value="" style="endArrow=none;html=1;rounded=0;fontSize=14;curved=1;" edge="1" parent="1">
          <mxGeometry relative="1" as="geometry">
            <mxPoint x="-886" y="1529" as="sourcePoint" />
            <mxPoint x="-719" y="1529" as="targetPoint" />
          </mxGeometry>
        </mxCell>
        <mxCell id="DtnWrnmQJirvtFvlb4CL-60" value="4*4 =16 .csv file" style="text;html=1;align=center;verticalAlign=middle;resizable=0;points=[];autosize=1;strokeColor=none;fillColor=none;fontSize=14;" vertex="1" parent="1">
          <mxGeometry x="-866" y="1538" width="109" height="21" as="geometry" />
        </mxCell>
        <mxCell id="DtnWrnmQJirvtFvlb4CL-61" value="" style="endArrow=classic;html=1;rounded=0;fontSize=14;" edge="1" parent="1">
          <mxGeometry width="50" height="50" relative="1" as="geometry">
            <mxPoint x="-523" y="1365" as="sourcePoint" />
            <mxPoint x="-471" y="1365" as="targetPoint" />
          </mxGeometry>
        </mxCell>
        <mxCell id="DtnWrnmQJirvtFvlb4CL-62" value="&lt;font style=&quot;font-size: 12px&quot;&gt;alter table&lt;/font&gt;" style="text;html=1;align=center;verticalAlign=middle;resizable=0;points=[];autosize=1;strokeColor=none;fillColor=none;fontSize=14;" vertex="1" parent="1">
          <mxGeometry x="-533" y="1340" width="63" height="22" as="geometry" />
        </mxCell>
        <mxCell id="DtnWrnmQJirvtFvlb4CL-83" style="edgeStyle=none;rounded=0;orthogonalLoop=1;jettySize=auto;html=1;exitX=1;exitY=0.5;exitDx=0;exitDy=0;entryX=0;entryY=0.5;entryDx=0;entryDy=0;fontSize=12;endArrow=none;endFill=0;" edge="1" parent="1" source="DtnWrnmQJirvtFvlb4CL-65" target="DtnWrnmQJirvtFvlb4CL-70">
          <mxGeometry relative="1" as="geometry" />
        </mxCell>
        <mxCell id="DtnWrnmQJirvtFvlb4CL-84" style="edgeStyle=none;rounded=0;orthogonalLoop=1;jettySize=auto;html=1;exitX=1;exitY=0.5;exitDx=0;exitDy=0;entryX=0;entryY=0.75;entryDx=0;entryDy=0;fontSize=12;endArrow=none;endFill=0;" edge="1" parent="1" source="DtnWrnmQJirvtFvlb4CL-65" target="DtnWrnmQJirvtFvlb4CL-71">
          <mxGeometry relative="1" as="geometry" />
        </mxCell>
        <mxCell id="DtnWrnmQJirvtFvlb4CL-85" style="edgeStyle=none;rounded=0;orthogonalLoop=1;jettySize=auto;html=1;exitX=1;exitY=0.5;exitDx=0;exitDy=0;entryX=0;entryY=0.5;entryDx=0;entryDy=0;fontSize=12;endArrow=none;endFill=0;" edge="1" parent="1" source="DtnWrnmQJirvtFvlb4CL-65" target="DtnWrnmQJirvtFvlb4CL-72">
          <mxGeometry relative="1" as="geometry" />
        </mxCell>
        <mxCell id="DtnWrnmQJirvtFvlb4CL-65" value="SD" style="rounded=0;whiteSpace=wrap;html=1;dashed=1;fontSize=14;" vertex="1" parent="1">
          <mxGeometry x="-668" y="1431" width="42" height="20" as="geometry" />
        </mxCell>
        <mxCell id="DtnWrnmQJirvtFvlb4CL-88" style="edgeStyle=none;rounded=0;orthogonalLoop=1;jettySize=auto;html=1;exitX=1;exitY=0.5;exitDx=0;exitDy=0;entryX=0;entryY=0.25;entryDx=0;entryDy=0;fontSize=12;endArrow=none;endFill=0;" edge="1" parent="1" source="DtnWrnmQJirvtFvlb4CL-66" target="DtnWrnmQJirvtFvlb4CL-69">
          <mxGeometry relative="1" as="geometry" />
        </mxCell>
        <mxCell id="DtnWrnmQJirvtFvlb4CL-89" style="edgeStyle=none;rounded=0;orthogonalLoop=1;jettySize=auto;html=1;exitX=1;exitY=0.5;exitDx=0;exitDy=0;entryX=0;entryY=0.5;entryDx=0;entryDy=0;fontSize=12;endArrow=none;endFill=0;" edge="1" parent="1" source="DtnWrnmQJirvtFvlb4CL-66" target="DtnWrnmQJirvtFvlb4CL-70">
          <mxGeometry relative="1" as="geometry" />
        </mxCell>
        <mxCell id="DtnWrnmQJirvtFvlb4CL-90" style="edgeStyle=none;rounded=0;orthogonalLoop=1;jettySize=auto;html=1;exitX=1;exitY=0.5;exitDx=0;exitDy=0;entryX=0;entryY=0.5;entryDx=0;entryDy=0;fontSize=12;endArrow=none;endFill=0;" edge="1" parent="1" source="DtnWrnmQJirvtFvlb4CL-66" target="DtnWrnmQJirvtFvlb4CL-71">
          <mxGeometry relative="1" as="geometry" />
        </mxCell>
        <mxCell id="DtnWrnmQJirvtFvlb4CL-66" value="SL" style="rounded=0;whiteSpace=wrap;html=1;dashed=1;fontSize=14;" vertex="1" parent="1">
          <mxGeometry x="-668" y="1463" width="42" height="20" as="geometry" />
        </mxCell>
        <mxCell id="DtnWrnmQJirvtFvlb4CL-92" style="edgeStyle=none;rounded=0;orthogonalLoop=1;jettySize=auto;html=1;exitX=1;exitY=0.5;exitDx=0;exitDy=0;entryX=0;entryY=0.5;entryDx=0;entryDy=0;fontSize=12;endArrow=none;endFill=0;" edge="1" parent="1" source="DtnWrnmQJirvtFvlb4CL-67" target="DtnWrnmQJirvtFvlb4CL-69">
          <mxGeometry relative="1" as="geometry" />
        </mxCell>
        <mxCell id="DtnWrnmQJirvtFvlb4CL-93" style="edgeStyle=none;rounded=0;orthogonalLoop=1;jettySize=auto;html=1;exitX=1;exitY=0.5;exitDx=0;exitDy=0;entryX=0;entryY=0.5;entryDx=0;entryDy=0;fontSize=12;endArrow=none;endFill=0;" edge="1" parent="1" source="DtnWrnmQJirvtFvlb4CL-67" target="DtnWrnmQJirvtFvlb4CL-70">
          <mxGeometry relative="1" as="geometry" />
        </mxCell>
        <mxCell id="DtnWrnmQJirvtFvlb4CL-94" style="edgeStyle=none;rounded=0;orthogonalLoop=1;jettySize=auto;html=1;exitX=1;exitY=0.25;exitDx=0;exitDy=0;entryX=0;entryY=0.5;entryDx=0;entryDy=0;fontSize=12;endArrow=none;endFill=0;" edge="1" parent="1" source="DtnWrnmQJirvtFvlb4CL-67" target="DtnWrnmQJirvtFvlb4CL-71">
          <mxGeometry relative="1" as="geometry" />
        </mxCell>
        <mxCell id="DtnWrnmQJirvtFvlb4CL-95" style="edgeStyle=none;rounded=0;orthogonalLoop=1;jettySize=auto;html=1;exitX=1;exitY=0.25;exitDx=0;exitDy=0;entryX=0;entryY=0.5;entryDx=0;entryDy=0;fontSize=12;endArrow=none;endFill=0;" edge="1" parent="1" source="DtnWrnmQJirvtFvlb4CL-67" target="DtnWrnmQJirvtFvlb4CL-72">
          <mxGeometry relative="1" as="geometry" />
        </mxCell>
        <mxCell id="DtnWrnmQJirvtFvlb4CL-67" value="PL" style="rounded=0;whiteSpace=wrap;html=1;dashed=1;fontSize=14;" vertex="1" parent="1">
          <mxGeometry x="-668" y="1495" width="42" height="20" as="geometry" />
        </mxCell>
        <mxCell id="DtnWrnmQJirvtFvlb4CL-80" style="edgeStyle=none;rounded=0;orthogonalLoop=1;jettySize=auto;html=1;exitX=1;exitY=0.5;exitDx=0;exitDy=0;fontSize=12;endArrow=none;endFill=0;" edge="1" parent="1" source="DtnWrnmQJirvtFvlb4CL-68" target="DtnWrnmQJirvtFvlb4CL-69">
          <mxGeometry relative="1" as="geometry" />
        </mxCell>
        <mxCell id="DtnWrnmQJirvtFvlb4CL-81" style="edgeStyle=none;rounded=0;orthogonalLoop=1;jettySize=auto;html=1;exitX=1;exitY=0.5;exitDx=0;exitDy=0;entryX=0;entryY=0.75;entryDx=0;entryDy=0;fontSize=12;endArrow=none;endFill=0;" edge="1" parent="1" source="DtnWrnmQJirvtFvlb4CL-68" target="DtnWrnmQJirvtFvlb4CL-70">
          <mxGeometry relative="1" as="geometry" />
        </mxCell>
        <mxCell id="DtnWrnmQJirvtFvlb4CL-86" style="edgeStyle=none;rounded=0;orthogonalLoop=1;jettySize=auto;html=1;exitX=1;exitY=0.5;exitDx=0;exitDy=0;entryX=0;entryY=0.5;entryDx=0;entryDy=0;fontSize=12;endArrow=none;endFill=0;" edge="1" parent="1" source="DtnWrnmQJirvtFvlb4CL-68" target="DtnWrnmQJirvtFvlb4CL-71">
          <mxGeometry relative="1" as="geometry" />
        </mxCell>
        <mxCell id="DtnWrnmQJirvtFvlb4CL-87" style="edgeStyle=none;rounded=0;orthogonalLoop=1;jettySize=auto;html=1;exitX=1;exitY=0.5;exitDx=0;exitDy=0;entryX=0;entryY=0.25;entryDx=0;entryDy=0;fontSize=12;endArrow=none;endFill=0;" edge="1" parent="1" source="DtnWrnmQJirvtFvlb4CL-68" target="DtnWrnmQJirvtFvlb4CL-72">
          <mxGeometry relative="1" as="geometry" />
        </mxCell>
        <mxCell id="DtnWrnmQJirvtFvlb4CL-68" value="LA" style="rounded=0;whiteSpace=wrap;html=1;dashed=1;fontSize=14;" vertex="1" parent="1">
          <mxGeometry x="-668" y="1399" width="42" height="20" as="geometry" />
        </mxCell>
        <mxCell id="DtnWrnmQJirvtFvlb4CL-82" style="edgeStyle=none;rounded=0;orthogonalLoop=1;jettySize=auto;html=1;exitX=0;exitY=0.5;exitDx=0;exitDy=0;entryX=1;entryY=0.75;entryDx=0;entryDy=0;fontSize=12;endArrow=none;endFill=0;" edge="1" parent="1" source="DtnWrnmQJirvtFvlb4CL-69" target="DtnWrnmQJirvtFvlb4CL-65">
          <mxGeometry relative="1" as="geometry" />
        </mxCell>
        <mxCell id="DtnWrnmQJirvtFvlb4CL-69" value="listing" style="rounded=0;whiteSpace=wrap;html=1;dashed=1;fontSize=14;" vertex="1" parent="1">
          <mxGeometry x="-601" y="1398" width="60" height="20" as="geometry" />
        </mxCell>
        <mxCell id="DtnWrnmQJirvtFvlb4CL-70" value="calendar" style="rounded=0;whiteSpace=wrap;html=1;dashed=1;fontSize=14;" vertex="1" parent="1">
          <mxGeometry x="-601" y="1431" width="61" height="20" as="geometry" />
        </mxCell>
        <mxCell id="DtnWrnmQJirvtFvlb4CL-71" value="review" style="rounded=0;whiteSpace=wrap;html=1;dashed=1;fontSize=14;" vertex="1" parent="1">
          <mxGeometry x="-601" y="1463" width="61" height="20" as="geometry" />
        </mxCell>
        <mxCell id="DtnWrnmQJirvtFvlb4CL-72" value="neighborhood" style="rounded=0;whiteSpace=wrap;html=1;dashed=1;fontSize=14;" vertex="1" parent="1">
          <mxGeometry x="-601" y="1495" width="93" height="20" as="geometry" />
        </mxCell>
        <mxCell id="DtnWrnmQJirvtFvlb4CL-75" value="" style="endArrow=none;html=1;rounded=0;fontSize=14;curved=1;" edge="1" parent="1">
          <mxGeometry relative="1" as="geometry">
            <mxPoint x="-691" y="1529" as="sourcePoint" />
            <mxPoint x="-524" y="1529" as="targetPoint" />
          </mxGeometry>
        </mxCell>
        <mxCell id="DtnWrnmQJirvtFvlb4CL-76" value="4*4 =16 Cassandra tables" style="text;html=1;align=center;verticalAlign=middle;resizable=0;points=[];autosize=1;strokeColor=none;fillColor=none;fontSize=14;" vertex="1" parent="1">
          <mxGeometry x="-689" y="1543" width="171" height="21" as="geometry" />
        </mxCell>
        <mxCell id="DtnWrnmQJirvtFvlb4CL-96" value="&lt;b&gt;&lt;font style=&quot;font-size: 14px&quot;&gt;Cassandra tables&lt;/font&gt;&lt;/b&gt;" style="text;html=1;align=center;verticalAlign=middle;resizable=0;points=[];autosize=1;strokeColor=none;fillColor=none;fontSize=12;" vertex="1" parent="1">
          <mxGeometry x="-461" y="1341.5" width="126" height="19" as="geometry" />
        </mxCell>
        <mxCell id="DtnWrnmQJirvtFvlb4CL-97" value="listing" style="rounded=0;whiteSpace=wrap;html=1;dashed=1;fontSize=14;" vertex="1" parent="1">
          <mxGeometry x="-470" y="1395" width="60" height="20" as="geometry" />
        </mxCell>
        <mxCell id="DtnWrnmQJirvtFvlb4CL-98" value="calendar" style="rounded=0;whiteSpace=wrap;html=1;dashed=1;fontSize=14;" vertex="1" parent="1">
          <mxGeometry x="-470" y="1428" width="61" height="20" as="geometry" />
        </mxCell>
        <mxCell id="DtnWrnmQJirvtFvlb4CL-99" value="review" style="rounded=0;whiteSpace=wrap;html=1;dashed=1;fontSize=14;" vertex="1" parent="1">
          <mxGeometry x="-470" y="1460" width="61" height="20" as="geometry" />
        </mxCell>
        <mxCell id="DtnWrnmQJirvtFvlb4CL-100" value="neighborhood" style="rounded=0;whiteSpace=wrap;html=1;dashed=1;fontSize=14;" vertex="1" parent="1">
          <mxGeometry x="-470" y="1492" width="93" height="20" as="geometry" />
        </mxCell>
        <mxCell id="DtnWrnmQJirvtFvlb4CL-101" value="&lt;font style=&quot;font-size: 14px&quot;&gt;&lt;b&gt;&lt;font style=&quot;font-size: 14px&quot;&gt;+&lt;/font&gt; &quot;City&quot;&lt;/b&gt;&lt;/font&gt;" style="text;html=1;align=center;verticalAlign=middle;resizable=0;points=[];autosize=1;strokeColor=none;fillColor=none;fontSize=12;" vertex="1" parent="1">
          <mxGeometry x="-391.5" y="1440" width="62" height="19" as="geometry" />
        </mxCell>
        <mxCell id="DtnWrnmQJirvtFvlb4CL-102" value="" style="endArrow=none;html=1;rounded=0;fontSize=14;curved=1;" edge="1" parent="1">
          <mxGeometry relative="1" as="geometry">
            <mxPoint x="-502.5" y="1529" as="sourcePoint" />
            <mxPoint x="-335.5" y="1529" as="targetPoint" />
          </mxGeometry>
        </mxCell>
        <mxCell id="DtnWrnmQJirvtFvlb4CL-103" value="16 Cassandra tables" style="text;html=1;align=center;verticalAlign=middle;resizable=0;points=[];autosize=1;strokeColor=none;fillColor=none;fontSize=14;" vertex="1" parent="1">
          <mxGeometry x="-483.5" y="1543" width="138" height="21" as="geometry" />
        </mxCell>
        <mxCell id="DtnWrnmQJirvtFvlb4CL-104" value="" style="endArrow=classic;html=1;rounded=0;fontSize=14;" edge="1" parent="1">
          <mxGeometry width="50" height="50" relative="1" as="geometry">
            <mxPoint x="-320" y="1365" as="sourcePoint" />
            <mxPoint x="-268" y="1365" as="targetPoint" />
          </mxGeometry>
        </mxCell>
        <mxCell id="DtnWrnmQJirvtFvlb4CL-105" value="&lt;font style=&quot;font-size: 12px&quot;&gt;Union all&lt;/font&gt;" style="text;html=1;align=center;verticalAlign=middle;resizable=0;points=[];autosize=1;strokeColor=none;fillColor=none;fontSize=14;" vertex="1" parent="1">
          <mxGeometry x="-322" y="1341.5" width="57" height="22" as="geometry" />
        </mxCell>
        <mxCell id="DtnWrnmQJirvtFvlb4CL-106" value="&lt;b&gt;&lt;font style=&quot;font-size: 14px&quot;&gt;Cassandra tables&lt;/font&gt;&lt;/b&gt;" style="text;html=1;align=center;verticalAlign=middle;resizable=0;points=[];autosize=1;strokeColor=none;fillColor=none;fontSize=12;" vertex="1" parent="1">
          <mxGeometry x="-252.5" y="1340" width="126" height="19" as="geometry" />
        </mxCell>
        <mxCell id="DtnWrnmQJirvtFvlb4CL-107" value="listing" style="rounded=0;whiteSpace=wrap;html=1;dashed=1;fontSize=14;" vertex="1" parent="1">
          <mxGeometry x="-227" y="1391.5" width="60" height="20" as="geometry" />
        </mxCell>
        <mxCell id="DtnWrnmQJirvtFvlb4CL-108" value="calendar" style="rounded=0;whiteSpace=wrap;html=1;dashed=1;fontSize=14;" vertex="1" parent="1">
          <mxGeometry x="-227" y="1424.5" width="61" height="20" as="geometry" />
        </mxCell>
        <mxCell id="DtnWrnmQJirvtFvlb4CL-109" value="review" style="rounded=0;whiteSpace=wrap;html=1;dashed=1;fontSize=14;" vertex="1" parent="1">
          <mxGeometry x="-227" y="1456.5" width="61" height="20" as="geometry" />
        </mxCell>
        <mxCell id="DtnWrnmQJirvtFvlb4CL-110" value="neighborhood" style="rounded=0;whiteSpace=wrap;html=1;dashed=1;fontSize=14;" vertex="1" parent="1">
          <mxGeometry x="-227" y="1488.5" width="93" height="20" as="geometry" />
        </mxCell>
        <mxCell id="DtnWrnmQJirvtFvlb4CL-112" value="4 Cassandra tables" style="text;html=1;align=center;verticalAlign=middle;resizable=0;points=[];autosize=1;strokeColor=none;fillColor=none;fontSize=14;" vertex="1" parent="1">
          <mxGeometry x="-271" y="1541.5" width="131" height="21" as="geometry" />
        </mxCell>
        <mxCell id="DtnWrnmQJirvtFvlb4CL-113" value="" style="endArrow=none;html=1;rounded=0;fontSize=14;curved=1;" edge="1" parent="1">
          <mxGeometry relative="1" as="geometry">
            <mxPoint x="-276" y="1528" as="sourcePoint" />
            <mxPoint x="-139.5" y="1528" as="targetPoint" />
          </mxGeometry>
        </mxCell>
      </root>
    </mxGraphModel>
  </diagram>
</mxfile>
